<svg width="12" height="12" viewBox="0 0 12 12" fill="none" xmlns="http://www.w3.org/2000/svg">
<path id="Vector" d="M11.8369 6.03419C11.8369 4.95779 11.5177 3.90556 10.9197 3.01056C10.3217 2.11556 9.4717 1.418 8.47724 1.00608C7.48277 0.594155 6.38849 0.486377 5.33276 0.696373C4.27704 0.906369 3.3073 1.42471 2.54617 2.18584C1.78504 2.94697 1.2667 3.91671 1.0567 4.97243C0.846709 6.02815 0.954486 7.12244 1.36641 8.1169C1.77833 9.11137 2.4759 9.96136 3.37089 10.5594C4.26589 11.1574 5.31812 11.4766 6.39452 11.4766C7.83793 11.4766 9.22223 10.9032 10.2429 9.88254C11.2635 8.8619 11.8369 7.4776 11.8369 6.03419ZM6.54079 8.75539C6.45187 8.66449 6.40207 8.54239 6.40207 8.41524C6.40207 8.28808 6.45187 8.16598 6.54079 8.07509L8.09527 6.5104L3.28556 6.5104C3.15926 6.5104 3.03813 6.46023 2.94883 6.37092C2.85952 6.28162 2.80935 6.16049 2.80935 6.03419C2.80935 5.90789 2.85952 5.78677 2.94883 5.69746C3.03813 5.60815 3.15926 5.55798 3.28556 5.55798L8.04765 5.55798L6.54079 4.05112C6.45057 3.96091 6.39989 3.83855 6.39989 3.71097C6.39989 3.58339 6.45057 3.46103 6.54079 3.37082C6.631 3.28061 6.75336 3.22993 6.88094 3.22993C7.00852 3.22993 7.13087 3.28061 7.22109 3.37082L9.5159 5.6773C9.72724 5.88971 9.72713 6.23299 9.51566 6.44526L7.21428 8.75539C7.17006 8.79961 7.11756 8.83469 7.05978 8.85863C7.002 8.88256 6.94008 8.89488 6.87753 8.89488C6.81499 8.89488 6.75307 8.88256 6.69529 8.85863C6.63751 8.83469 6.58501 8.79961 6.54079 8.75539Z" fill="white"/>
</svg>
