<svg width="18" height="18" viewBox="0 0 18 18" fill="none" xmlns="http://www.w3.org/2000/svg">
<path d="M6.27505 3.25209C6.27505 3.15286 6.23563 3.05769 6.16546 2.98752C6.09529 2.91735 6.00012 2.87793 5.90089 2.87793C5.80165 2.87793 5.70648 2.91735 5.63632 2.98752C5.56615 3.05769 5.52673 3.15286 5.52673 3.25209V3.62626H4.7784C4.38146 3.62626 4.00078 3.78394 3.7201 4.06462C3.43942 4.3453 3.28174 4.72598 3.28174 5.12292L3.28174 5.87125H15.255V5.12292C15.255 4.72598 15.0973 4.3453 14.8166 4.06462C14.536 3.78394 14.1553 3.62626 13.7583 3.62626H13.01V3.25209C13.01 3.15286 12.9706 3.05769 12.9004 2.98752C12.8303 2.91735 12.7351 2.87793 12.6359 2.87793C12.5366 2.87793 12.4414 2.91735 12.3713 2.98752C12.3011 3.05769 12.2617 3.15286 12.2617 3.25209V3.62626H6.27505V3.25209ZM10.3175 10.5453C10.7852 10.5453 11.2035 10.1831 11.2035 9.66228C11.2035 9.03967 10.8092 8.74184 10.3355 8.74184C9.89697 8.74184 9.46144 9.03144 9.46144 9.64731C9.46144 10.2587 9.86778 10.5453 10.3175 10.5453Z" fill="#00A4F4"/>
<path d="M15.255 13.3541V6.61914H3.28174V13.3541C3.28174 13.751 3.43942 14.1317 3.7201 14.4124C4.00078 14.6931 4.38146 14.8508 4.7784 14.8508H13.7583C14.1553 14.8508 14.536 14.6931 14.8166 14.4124C15.0973 14.1317 15.255 13.751 15.255 13.3541ZM10.2681 12.4486C9.43749 12.4486 9.0289 11.8747 8.99373 11.3957H9.50484C9.53702 11.6726 9.79444 12.0094 10.2913 12.0094C10.9229 12.0094 11.2649 11.3748 11.2679 10.39H11.2477C11.1332 10.6998 10.771 10.9812 10.2128 10.9812C9.57518 10.9812 8.95856 10.5247 8.95856 9.65661C8.95856 8.80576 9.61036 8.30288 10.3033 8.30288C11.1804 8.30288 11.7648 8.85215 11.7648 10.2994C11.7648 11.6502 11.2095 12.4479 10.2681 12.4479V12.4486ZM8.10547 8.38146V12.3715H7.5996V8.92325H7.59062C7.3736 9.03999 6.92984 9.31238 6.64922 9.5047V8.98386C6.96454 8.76382 7.29264 8.56266 7.63177 8.38146H8.10547Z" fill="#00A4F4"/>
</svg>
