<svg width="18" height="18" viewBox="0 0 18 18" fill="none" xmlns="http://www.w3.org/2000/svg">
<path d="M14.7956 3.06055H3.18519C2.38697 3.06055 1.74114 3.71363 1.74114 4.51185L1.73389 13.2197C1.73389 14.0179 2.38697 14.671 3.18519 14.671H14.7956C15.5938 14.671 16.2469 14.0179 16.2469 13.2197V4.51185C16.2469 3.71363 15.5938 3.06055 14.7956 3.06055ZM14.5054 6.14457L9.37501 9.35195C9.1428 9.49708 8.83802 9.49708 8.60581 9.35195L3.47545 6.14457C3.40269 6.10372 3.33897 6.04854 3.28815 5.98235C3.23734 5.91617 3.20048 5.84036 3.1798 5.75952C3.15913 5.67867 3.15508 5.59448 3.16789 5.51202C3.1807 5.42957 3.21011 5.35057 3.25433 5.27981C3.29856 5.20905 3.35668 5.148 3.42518 5.10035C3.49369 5.05271 3.57115 5.01945 3.65287 5.00261C3.7346 4.98577 3.81889 4.98568 3.90065 5.00236C3.98241 5.01903 4.05994 5.05212 4.12854 5.09963L8.99041 8.14011L13.8523 5.09963C13.9209 5.05212 13.9984 5.01903 14.0802 5.00236C14.1619 4.98568 14.2462 4.98577 14.3279 5.00261C14.4097 5.01945 14.4871 5.05271 14.5556 5.10035C14.6241 5.148 14.6823 5.20905 14.7265 5.27981C14.7707 5.35057 14.8001 5.42957 14.8129 5.51202C14.8257 5.59448 14.8217 5.67867 14.801 5.75952C14.7803 5.84036 14.7435 5.91617 14.6927 5.98235C14.6419 6.04854 14.5781 6.10372 14.5054 6.14457Z" fill="#00A4F4"/>
</svg>
