<svg width="16" height="17" viewBox="0 0 16 17" fill="none" xmlns="http://www.w3.org/2000/svg">
<g id="ic:round-email">
<path id="Vector" d="M8.28585 3.12256C7.65727 3.12256 7.05443 3.38352 6.60995 3.84803C6.16548 4.31255 5.91577 4.94257 5.91577 5.59949C5.91577 6.25641 6.16548 6.88643 6.60995 7.35094C7.05443 7.81546 7.65727 8.07642 8.28585 8.07642C8.91443 8.07642 9.51727 7.81546 9.96174 7.35094C10.4062 6.88643 10.6559 6.25641 10.6559 5.59949C10.6559 4.94257 10.4062 4.31255 9.96174 3.84803C9.51727 3.38352 8.91443 3.12256 8.28585 3.12256ZM5.75777 9.39745C5.12919 9.39745 4.52635 9.65841 4.08187 10.1229C3.6374 10.5874 3.3877 11.2175 3.3877 11.8744V12.6591C3.3877 13.1571 3.73278 13.5811 4.203 13.6611C6.90678 14.1228 9.66492 14.1228 12.3687 13.6611C12.5963 13.6223 12.8032 13.5003 12.9526 13.3167C13.102 13.1331 13.184 12.9 13.184 12.6591V11.8744C13.184 11.2175 12.9343 10.5874 12.4898 10.1229C12.0453 9.65841 11.4425 9.39745 10.8139 9.39745H10.599C10.4821 9.39745 10.3658 9.41726 10.2552 9.45425L9.70789 9.64118C8.78385 9.9564 7.78784 9.9564 6.8638 9.64118L6.31647 9.45425C6.20565 9.41656 6.08983 9.39739 5.97329 9.39745H5.75777Z" fill="#00A4F4"/>
</g>
</svg>
