<svg width="13" height="13" viewBox="0 0 13 13" fill="none" xmlns="http://www.w3.org/2000/svg">
<path d="M8.6487 8.55375L9.67971 7.52232C9.81858 7.38512 9.99427 7.29121 10.1855 7.25197C10.3767 7.21274 10.5751 7.22988 10.7568 7.3013L12.0133 7.8032C12.1969 7.87774 12.3543 8.00497 12.4657 8.16885C12.5771 8.33274 12.6375 8.52594 12.6393 8.72412V11.0264C12.6382 11.1612 12.6099 11.2944 12.556 11.418C12.5021 11.5416 12.4238 11.653 12.3257 11.7455C12.2277 11.838 12.112 11.9096 11.9855 11.9562C11.859 12.0028 11.7244 12.0232 11.5899 12.0164C2.7848 11.4685 1.00815 4.00901 0.672145 1.15416C0.656548 1.01397 0.670799 0.872059 0.71396 0.737771C0.757122 0.603484 0.828216 0.47986 0.922565 0.375033C1.01691 0.270207 1.13238 0.186553 1.26137 0.129575C1.39036 0.072597 1.52994 0.0435867 1.67094 0.0444524H3.89407C4.09245 0.0450399 4.28612 0.104988 4.45017 0.216586C4.61422 0.328184 4.74114 0.486328 4.81461 0.670678L5.31631 1.92773C5.39007 2.10873 5.40889 2.30745 5.37042 2.49908C5.33194 2.69071 5.23788 2.86675 5.09998 3.00521L4.06897 4.03664C4.06897 4.03664 4.66272 8.05645 8.6487 8.55375Z" fill="url(#paint0_linear_4081_23)"/>
<defs>
<linearGradient id="paint0_linear_4081_23" x1="-65.4591" y1="7.66379" x2="8.25611" y2="17.2289" gradientUnits="userSpaceOnUse">
<stop stop-color="#007DAA"/>
<stop offset="0.626806" stop-color="#15B2FF"/>
</linearGradient>
</defs>
</svg>
