<svg width="29" height="207" viewBox="0 0 29 207" fill="none" xmlns="http://www.w3.org/2000/svg">
<path d="M14.6655 117.137L14.6655 179.724" stroke="#B6E6FF" stroke-width="1.08848" stroke-linecap="round" stroke-dasharray="4.35 4.35"/>
<path d="M14.6655 27.8813L14.6655 90.4689" stroke="#B6E6FF" stroke-width="1.08848" stroke-linecap="round" stroke-dasharray="4.35 4.35"/>
<rect x="0.515625" y="0.125488" width="28.3004" height="28.3004" rx="14.1502" fill="url(#paint0_linear_4069_10)"/>
<path d="M14.4343 20.5679V10.3188L12.0832 11.7555V9.43926L14.4343 8.0286H16.5764V20.5679H14.4343Z" fill="white"/>
<rect x="0.515625" y="89.3809" width="28.3004" height="28.3004" rx="14.1502" fill="url(#paint1_linear_4069_10)"/>
<path d="M10.4071 109.805V107.977L15.7712 103.196C16.1891 102.825 16.4794 102.473 16.6419 102.142C16.8045 101.812 16.8858 101.492 16.8858 101.185C16.8858 100.767 16.7958 100.395 16.6158 100.07C16.4359 99.7391 16.1862 99.4779 15.8669 99.2863C15.5535 99.0947 15.1906 98.9989 14.7785 98.9989C14.3431 98.9989 13.957 99.1005 13.6203 99.3037C13.2894 99.5011 13.0311 99.7652 12.8453 100.096C12.6596 100.427 12.5725 100.784 12.5841 101.167H10.4246C10.4246 100.331 10.6103 99.6027 10.9819 98.9815C11.3592 98.3603 11.8759 97.8785 12.5318 97.536C13.1936 97.1935 13.957 97.0222 14.822 97.0222C15.6231 97.0222 16.343 97.2022 16.9815 97.5621C17.6201 97.9162 18.1223 98.4097 18.488 99.0425C18.8537 99.6694 19.0366 100.392 19.0366 101.211C19.0366 101.809 18.9553 102.311 18.7928 102.717C18.6302 103.124 18.3864 103.498 18.0613 103.84C17.742 104.183 17.3444 104.563 16.8683 104.981L13.063 108.351L12.8715 107.829H19.0366V109.805H10.4071Z" fill="white"/>
<rect x="0.515625" y="178.636" width="28.3004" height="28.3004" rx="14.1502" fill="url(#paint2_linear_4069_10)"/>
<path d="M15.0146 199.313C14.3876 199.313 13.7955 199.191 13.2382 198.948C12.6809 198.704 12.1961 198.358 11.784 197.911C11.3776 197.464 11.0844 196.936 10.9045 196.326L12.9334 195.778C13.0785 196.277 13.3427 196.663 13.7258 196.936C14.1148 197.203 14.5414 197.334 15.0059 197.328C15.418 197.328 15.7867 197.232 16.1118 197.04C16.4369 196.849 16.6923 196.591 16.8781 196.265C17.0638 195.935 17.1567 195.566 17.1567 195.16C17.1567 194.538 16.9564 194.019 16.5559 193.601C16.1553 193.183 15.6386 192.974 15.0059 192.974C14.8143 192.974 14.6256 193 14.4399 193.052C14.2599 193.105 14.0857 193.177 13.9174 193.27L12.9595 191.616L17.1741 188.01L17.357 188.516H11.3921V186.539H19.0811V188.524L15.6938 191.781L15.6764 191.163C16.4369 191.215 17.0841 191.427 17.6182 191.798C18.1581 192.17 18.5703 192.649 18.8547 193.235C19.145 193.821 19.2901 194.463 19.2901 195.16C19.2901 195.949 19.0956 196.657 18.7067 197.284C18.3235 197.911 17.8069 198.408 17.1567 198.773C16.5123 199.133 15.7983 199.313 15.0146 199.313Z" fill="white"/>
<defs>
<linearGradient id="paint0_linear_4069_10" x1="0.515625" y1="0.125488" x2="29.305" y2="6.19883" gradientUnits="userSpaceOnUse">
<stop stop-color="#A7E2FF"/>
<stop offset="1" stop-color="#0095DE"/>
</linearGradient>
<linearGradient id="paint1_linear_4069_10" x1="0.515625" y1="89.3809" x2="29.305" y2="95.4542" gradientUnits="userSpaceOnUse">
<stop stop-color="#A7E2FF"/>
<stop offset="1" stop-color="#0095DE"/>
</linearGradient>
<linearGradient id="paint2_linear_4069_10" x1="0.515625" y1="178.636" x2="29.305" y2="184.709" gradientUnits="userSpaceOnUse">
<stop stop-color="#A7E2FF"/>
<stop offset="1" stop-color="#0095DE"/>
</linearGradient>
</defs>
</svg>
