<svg width="78" height="22" viewBox="0 0 78 22" fill="none" xmlns="http://www.w3.org/2000/svg">
<path d="M77.7676 1.15234C73.4741 1.15234 73.4741 5.81123 69.1807 5.81123C64.8872 5.81123 64.8873 1.15234 60.5938 1.15234C56.3004 1.15234 56.3004 5.81123 52.0069 5.81123C47.7135 5.81123 47.7135 1.15234 43.42 1.15234C39.1266 1.15234 39.1266 5.81123 34.8332 5.81123C30.5399 5.81123 30.5399 1.15234 26.2461 1.15234C21.9528 1.15234 21.9528 5.81123 17.6594 5.81123C13.3661 5.81123 13.3661 1.15234 9.07269 1.15234C4.77896 1.15234 4.77896 5.81123 0.485599 5.81123" stroke="url(#paint0_linear_2001_1246)" stroke-width="1.0988" stroke-miterlimit="10"/>
<path d="M77.7671 9.00781C73.4737 9.00781 73.4736 13.6666 69.1802 13.6666C64.8867 13.6666 64.8868 9.00781 60.5933 9.00781C56.2999 9.00781 56.2999 13.6666 52.0064 13.6666C47.713 13.6666 47.713 9.00781 43.4195 9.00781C39.1261 9.00781 39.1261 13.6666 34.8327 13.6666C30.5394 13.6666 30.5394 9.00781 26.2456 9.00781C21.9523 9.00781 21.9523 13.6666 17.6589 13.6666C13.3656 13.6666 13.3656 9.00781 9.0722 9.00781C4.77848 9.00781 4.77847 13.6666 0.485111 13.6666" stroke="url(#paint1_linear_2001_1246)" stroke-width="1.0988" stroke-miterlimit="10"/>
<path d="M77.7671 16.7734C73.4737 16.7734 73.4736 21.4323 69.1802 21.4323C64.8867 21.4323 64.8868 16.7734 60.5933 16.7734C56.2999 16.7734 56.2999 21.4323 52.0064 21.4323C47.713 21.4323 47.713 16.7734 43.4195 16.7734C39.1261 16.7734 39.1261 21.4323 34.8327 21.4323C30.5394 21.4323 30.5394 16.7734 26.2456 16.7734C21.9523 16.7734 21.9523 21.4323 17.6589 21.4323C13.3656 21.4323 13.3656 16.7734 9.0722 16.7734C4.77848 16.7734 4.77847 21.4323 0.485111 21.4323" stroke="url(#paint2_linear_2001_1246)" stroke-width="1.0988" stroke-miterlimit="10"/>
<defs>
<linearGradient id="paint0_linear_2001_1246" x1="63.1107" y1="3.48179" x2="58.6689" y2="14.6743" gradientUnits="userSpaceOnUse">
<stop stop-color="#0179B4"/>
<stop offset="0.876334" stop-color="#88D8FF"/>
</linearGradient>
<linearGradient id="paint1_linear_2001_1246" x1="63.1102" y1="11.3372" x2="58.6685" y2="22.5296" gradientUnits="userSpaceOnUse">
<stop stop-color="#0179B4"/>
<stop offset="0.876334" stop-color="#88D8FF"/>
</linearGradient>
<linearGradient id="paint2_linear_2001_1246" x1="63.1102" y1="19.1028" x2="58.6685" y2="30.2952" gradientUnits="userSpaceOnUse">
<stop stop-color="#0179B4"/>
<stop offset="0.876334" stop-color="#88D8FF"/>
</linearGradient>
</defs>
</svg>
