<svg width="92" height="114" viewBox="0 0 92 114" fill="none" xmlns="http://www.w3.org/2000/svg">
<path d="M0 55.0128C0 50.6266 0.859857 46.2832 2.53058 42.231C4.20133 38.1784 6.65006 34.4963 9.73715 31.3948C12.8242 28.2932 16.489 25.8328 20.5223 24.1543C24.5559 22.4759 28.8789 21.6118 33.2447 21.6118V55.0128H0Z" fill="#00A4F4"/>
<path d="M0 55.0137C0 59.658 0.859857 64.2568 2.53058 68.5477C4.20133 72.8385 6.65006 76.7371 9.73715 80.0211C12.8242 83.3051 16.489 85.9102 20.5223 87.6875C24.5559 89.4648 28.8789 90.3795 33.2447 90.3795V55.0137H0Z" fill="#2CBEFF"/>
<path d="M66.4893 55.0137C66.4893 59.658 65.6301 64.2568 63.9595 68.5477C62.2888 72.8385 59.8401 76.7371 56.7524 80.0211C53.6653 83.3051 50.0005 85.9102 45.9668 87.6875C41.9336 89.4648 37.6103 90.3795 33.2446 90.3795V55.0137H66.4893Z" fill="#75D4FF"/>
<path d="M88.0001 25.542C88.0001 39.6483 76.6177 51.0839 62.5775 51.0839H37.1553V25.542C37.1553 11.4356 48.5373 0 62.5775 0C76.6177 0 88.0001 11.4356 88.0001 25.542Z" fill="#0084D4"/>
<path d="M4.34303 111H0.914322V95.6851H4.34303V101.765H12.3433V95.6851H15.7721V111H12.3433V104.851H4.34303V111ZM23.6917 111.229C19.8744 111.229 17.2685 109.354 17.2685 105.285C17.2685 101.628 19.8515 99.3195 23.6231 99.3195C27.3718 99.3195 29.8633 101.285 29.8633 104.874C29.8633 105.285 29.8176 105.583 29.7719 105.971H20.4458C20.5372 107.731 21.3601 108.486 23.5774 108.486C25.6117 108.486 26.3203 107.96 26.3203 106.977V106.748H29.749V107C29.749 109.491 27.3261 111.229 23.6917 111.229ZM23.5545 101.994C21.5201 101.994 20.6515 102.68 20.4915 104.165H26.5718C26.4803 102.657 25.566 101.994 23.5545 101.994ZM34.8375 111.229C32.3688 111.229 30.883 110.086 30.883 108.166C30.883 106.474 32.1402 105.423 34.586 105.171L39.5005 104.668V104.234C39.5005 102.748 38.8376 102.337 37.009 102.337C35.2718 102.337 34.5632 102.794 34.5632 104.097V104.188H31.1116V104.12C31.1116 101.285 33.4888 99.3195 37.2604 99.3195C41.0777 99.3195 42.8835 101.285 42.8835 104.28V111H39.6834V108.371H39.5005C38.9748 110.154 37.3747 111.229 34.8375 111.229ZM34.3346 107.937C34.3346 108.554 34.8146 108.806 35.8204 108.806C38.1519 108.806 39.4091 108.257 39.5005 106.634L35.5232 107.091C34.7003 107.16 34.3346 107.388 34.3346 107.937ZM48.0501 111H44.6214V95.6851H48.0501V111ZM53.2735 111H49.8448V95.6851H53.5021L58.9881 102.931L61.091 106.154H61.3424L61.1824 103.068V95.6851H64.6111V111H60.9539L55.3079 103.685L53.365 100.805H53.1364L53.2735 103.617V111ZM72.5106 111.229C68.6933 111.229 66.0874 109.354 66.0874 105.285C66.0874 101.628 68.6704 99.3195 72.442 99.3195C76.1907 99.3195 78.6822 101.285 78.6822 104.874C78.6822 105.285 78.6365 105.583 78.5908 105.971H69.2647C69.3561 107.731 70.179 108.486 72.3963 108.486C74.4306 108.486 75.1392 107.96 75.1392 106.977V106.748H78.5679V107C78.5679 109.491 76.145 111.229 72.5106 111.229ZM72.3734 101.994C70.339 101.994 69.4704 102.68 69.3104 104.165H75.3907C75.2992 102.657 74.3849 101.994 72.3734 101.994ZM88.2051 111H85.3707C82.6963 111 81.0734 109.743 81.0734 106.863V102.383H79.2676V99.5481H81.0734V97.3309H84.5021V99.5481H88.2051V102.383H84.5021V106.474C84.5021 107.617 84.9364 107.914 86.1479 107.914H88.2051V111Z" fill="#0069AB"/>
</svg>
