<svg width="18" height="18" viewBox="0 0 18 18" fill="none" xmlns="http://www.w3.org/2000/svg">
<path d="M6.33527 2.4541H11.8212C13.9111 2.4541 15.6091 4.15213 15.6091 6.24201V11.7279C15.6091 12.7326 15.21 13.696 14.4997 14.4064C13.7893 15.1168 12.8258 15.5158 11.8212 15.5158H6.33527C4.24539 15.5158 2.54736 13.8178 2.54736 11.7279V6.24201C2.54736 5.23739 2.94645 4.27392 3.65682 3.56355C4.36719 2.85318 5.33065 2.4541 6.33527 2.4541ZM6.20465 3.76028C5.5811 3.76028 4.98308 4.00798 4.54216 4.4489C4.10124 4.88982 3.85354 5.48784 3.85354 6.11139V11.8586C3.85354 13.1582 4.90501 14.2097 6.20465 14.2097H11.9518C12.5754 14.2097 13.1734 13.962 13.6143 13.521C14.0552 13.0801 14.3029 12.4821 14.3029 11.8586V6.11139C14.3029 4.81175 13.2515 3.76028 11.9518 3.76028H6.20465ZM12.5069 4.73991C12.7235 4.73991 12.9311 4.82592 13.0842 4.97901C13.2373 5.13211 13.3233 5.33975 13.3233 5.55627C13.3233 5.77278 13.2373 5.98042 13.0842 6.13352C12.9311 6.28662 12.7235 6.37262 12.5069 6.37262C12.2904 6.37262 12.0828 6.28662 11.9297 6.13352C11.7766 5.98042 11.6906 5.77278 11.6906 5.55627C11.6906 5.33975 11.7766 5.13211 11.9297 4.97901C12.0828 4.82592 12.2904 4.73991 12.5069 4.73991ZM9.07824 5.71954C9.94428 5.71954 10.7749 6.06357 11.3872 6.67596C11.9996 7.28835 12.3437 8.11893 12.3437 8.98497C12.3437 9.85102 11.9996 10.6816 11.3872 11.294C10.7749 11.9064 9.94428 12.2504 9.07824 12.2504C8.21219 12.2504 7.38161 11.9064 6.76922 11.294C6.15684 10.6816 5.8128 9.85102 5.8128 8.98497C5.8128 8.11893 6.15684 7.28835 6.76922 6.67596C7.38161 6.06357 8.21219 5.71954 9.07824 5.71954ZM9.07824 7.02571C8.55861 7.02571 8.06026 7.23213 7.69283 7.59957C7.3254 7.967 7.11897 8.46535 7.11897 8.98497C7.11897 9.5046 7.3254 10.0029 7.69283 10.3704C8.06026 10.7378 8.55861 10.9442 9.07824 10.9442C9.59786 10.9442 10.0962 10.7378 10.4636 10.3704C10.8311 10.0029 11.0375 9.5046 11.0375 8.98497C11.0375 8.46535 10.8311 7.967 10.4636 7.59957C10.0962 7.23213 9.59786 7.02571 9.07824 7.02571Z" fill="#00A4F4"/>
</svg>
