<svg width="18" height="18" viewBox="0 0 18 18" fill="none" xmlns="http://www.w3.org/2000/svg">
<path d="M14.1046 2.4541C14.4895 2.4541 14.8586 2.60701 15.1308 2.87918C15.403 3.15135 15.5559 3.5205 15.5559 3.90541V14.0645C15.5559 14.4494 15.403 14.8186 15.1308 15.0908C14.8586 15.3629 14.4895 15.5158 14.1046 15.5158H3.94545C3.56054 15.5158 3.19139 15.3629 2.91922 15.0908C2.64705 14.8186 2.49414 14.4494 2.49414 14.0645V3.90541C2.49414 3.5205 2.64705 3.15135 2.91922 2.87918C3.19139 2.60701 3.56054 2.4541 3.94545 2.4541H14.1046ZM13.7418 13.7017V9.85576C13.7418 9.22835 13.4925 8.62665 13.0489 8.183C12.6052 7.73936 12.0035 7.49013 11.3761 7.49013C10.7593 7.49013 10.0409 7.86747 9.69261 8.43348V7.628H7.66804V13.7017H9.69261V10.1242C9.69261 9.5655 10.1425 9.10833 10.7013 9.10833C10.9707 9.10833 11.2291 9.21537 11.4196 9.40589C11.6101 9.59641 11.7172 9.85481 11.7172 10.1242V13.7017H13.7418ZM5.30967 6.48873C5.633 6.48873 5.94308 6.36029 6.1717 6.13166C6.40033 5.90304 6.52877 5.59296 6.52877 5.26963C6.52877 4.59478 5.98453 4.04328 5.30967 4.04328C4.98442 4.04328 4.6725 4.17248 4.44251 4.40247C4.21252 4.63246 4.08332 4.94438 4.08332 5.26963C4.08332 5.94449 4.63482 6.48873 5.30967 6.48873ZM6.31833 13.7017V7.628H4.30827V13.7017H6.31833Z" fill="#00A4F4"/>
</svg>
