<svg width="18" height="18" viewBox="0 0 18 18" fill="none" xmlns="http://www.w3.org/2000/svg">
<path d="M7.66513 10.8507L11.0546 8.98477L7.66513 7.11881V10.8507ZM15.2148 5.98057C15.2997 6.27291 15.3585 6.66476 15.3977 7.16235C15.4434 7.65994 15.463 8.08911 15.463 8.4623L15.5022 8.98477C15.5022 10.3469 15.3977 11.3483 15.2148 11.989C15.0515 12.5488 14.6728 12.9095 14.085 13.065C13.778 13.1459 13.2164 13.2019 12.3543 13.2392C11.5053 13.2827 10.7281 13.3014 10.0097 13.3014L8.9713 13.3387C6.23487 13.3387 4.53031 13.2392 3.85763 13.065C3.26985 12.9095 2.89106 12.5488 2.72779 11.989C2.64289 11.6966 2.58411 11.3048 2.54492 10.8072C2.49921 10.3096 2.47961 9.88044 2.47961 9.50724L2.44043 8.98477C2.44043 7.62262 2.54492 6.62122 2.72779 5.98057C2.89106 5.42078 3.26985 5.06003 3.85763 4.90453C4.16458 4.82368 4.72624 4.7677 5.58831 4.73038C6.43732 4.68684 7.2145 4.66818 7.93289 4.66818L8.9713 4.63086C11.7077 4.63086 13.4123 4.73038 14.085 4.90453C14.6728 5.06003 15.0515 5.42078 15.2148 5.98057Z" fill="#00A4F4"/>
</svg>
