<svg width="19" height="18" viewBox="0 0 19 18" fill="none" xmlns="http://www.w3.org/2000/svg">
<path d="M11.6253 11.3882L12.6563 10.3568C12.7951 10.2196 12.9708 10.1257 13.162 10.0864C13.3532 10.0472 13.5517 10.0643 13.7333 10.1358L14.9899 10.6377C15.1734 10.7122 15.3308 10.8394 15.4422 11.0033C15.5536 11.1672 15.614 11.3604 15.6158 11.5586V13.8609C15.6148 13.9957 15.5864 14.1289 15.5326 14.2525C15.4787 14.3761 15.4004 14.4874 15.3023 14.5799C15.2043 14.6724 15.0885 14.7441 14.9621 14.7907C14.8356 14.8372 14.701 14.8577 14.5664 14.8509C5.76137 14.3029 3.98471 6.84348 3.64871 3.98863C3.63311 3.84844 3.64736 3.70653 3.69052 3.57224C3.73368 3.43796 3.80478 3.31433 3.89913 3.20951C3.99348 3.10468 4.10894 3.02103 4.23793 2.96405C4.36692 2.90707 4.5065 2.87806 4.6475 2.87893H6.87063C7.06901 2.87951 7.26268 2.93946 7.42673 3.05106C7.59078 3.16266 7.7177 3.3208 7.79118 3.50515L8.29288 4.76221C8.36664 4.9432 8.38545 5.14192 8.34698 5.33355C8.30851 5.52518 8.21445 5.70122 8.07655 5.83968L7.04553 6.87111C7.04553 6.87111 7.63929 10.8909 11.6253 11.3882Z" fill="#00A4F4"/>
</svg>
