<svg width="12" height="12" viewBox="0 0 12 12" fill="none" xmlns="http://www.w3.org/2000/svg">
<path d="M5.88087 11.5195C6.59571 11.5205 7.30369 11.3801 7.96411 11.1066C8.62453 10.833 9.22438 10.4316 9.72918 9.92547C10.2353 9.42067 10.6367 8.82082 10.9103 8.1604C11.1838 7.49997 11.3242 6.792 11.3233 6.07716C11.3242 5.36232 11.1838 4.65435 10.9102 3.99393C10.6367 3.33351 10.2353 2.73366 9.72918 2.22885C9.22438 1.72271 8.62453 1.32133 7.96411 1.04776C7.30369 0.774197 6.59571 0.633844 5.88087 0.63477C5.16603 0.633859 4.45806 0.774218 3.79764 1.04778C3.13722 1.32135 2.53737 1.72272 2.03256 2.22885C1.52643 2.73366 1.12506 3.33351 0.851494 3.99393C0.577929 4.65435 0.43757 5.36232 0.438481 6.07716C0.437555 6.792 0.577908 7.49997 0.851473 8.1604C1.12504 8.82082 1.52642 9.42067 2.03256 9.92547C2.53737 10.4316 3.13722 10.833 3.79764 11.1065C4.45806 11.3801 5.16603 11.5205 5.88087 11.5195Z" fill="white"/>
<path d="M3.7041 6.07608L5.33682 7.70879L8.60225 4.44336" stroke="#00A4F4" stroke-width="1.08848" stroke-linecap="round" stroke-linejoin="round"/>
</svg>
